<?xml version="1.0" encoding="UTF-8"?>
<svg version="1.1" xmlns="http://www.w3.org/2000/svg" width="4610" height="1388">
<path d="M0 0 C0.69865173 0.00060425 1.39730347 0.0012085 2.11712646 0.00183105 C70.94170474 0.16248508 133.03474692 26.7854483 182.5 74.1875 C183.32113281 74.96738281 184.14226563 75.74726562 184.98828125 76.55078125 C190.64954892 82.05560629 195.60177564 88.00238583 200.5 94.1875 C201.38607297 95.28307469 202.27281485 96.37810865 203.16015625 97.47265625 C245.17861699 149.6329909 266.56106134 217.13160453 266.74023438 283.76904297 C266.74980691 285.89462526 266.78091826 288.01917908 266.8125 290.14453125 C266.86190218 303.86598717 265.10905525 316.2423545 263.5 330.1875 C135.13 330.1875 6.76 330.1875 -125.5 330.1875 C-124.84 333.1575 -124.18 336.1275 -123.5 339.1875 C-123.20754395 340.52180054 -123.20754395 340.52180054 -122.90917969 341.88305664 C-116.27097974 372.05094829 -103.99264226 396.85661116 -82.5 419.1875 C-81.93152344 419.81914063 -81.36304687 420.45078125 -80.77734375 421.1015625 C-58.16051732 445.51153886 -19.93672292 459.92214566 12.73168945 461.32641602 C71.40008682 462.89951291 120.17288646 441.25875055 162.5 401.1875 C163.30630859 400.23810547 163.30630859 400.23810547 164.12890625 399.26953125 C164.58136719 398.91246094 165.03382813 398.55539062 165.5 398.1875 C168.9889914 398.61858818 170.68652315 399.99461137 173.13874817 402.43183899 C173.84406677 403.1258078 174.54938538 403.81977661 175.27607727 404.53477478 C176.03937851 405.30100662 176.80267975 406.06723846 177.58911133 406.85668945 C178.40084808 407.65995667 179.21258484 408.46322388 180.04891968 409.29083252 C182.73451989 411.95299876 185.40873823 414.62626033 188.08203125 417.30078125 C189.93929401 419.15094765 191.79685715 421.00081257 193.65470886 422.85038757 C197.54829971 426.72937302 201.43483865 430.61533013 205.31811523 434.50463867 C209.81062565 439.00379836 214.31771056 443.48797422 218.83203107 447.96524078 C223.17223562 452.27110509 227.4985222 456.59069321 231.81952477 460.91582298 C233.66125794 462.75585729 235.5070019 464.59188586 237.35672951 466.42388344 C239.93580101 468.98093912 242.49864297 471.55322295 245.05786133 474.13012695 C245.83128372 474.8902861 246.60470612 475.65044525 247.40156555 476.43363953 C248.09278503 477.13606781 248.78400452 477.83849609 249.49617004 478.56221008 C250.1039671 479.16929463 250.71176416 479.77637918 251.33797932 480.40186024 C252.5 482.1875 252.5 482.1875 252.33593273 484.23390484 C250.95055757 487.47156034 248.46882719 489.80392513 246.0625 492.3125 C245.52117432 492.88581055 244.97984863 493.45912109 244.42211914 494.04980469 C242.78996389 495.77078634 241.14647788 497.48022909 239.5 499.1875 C238.63117187 500.09757812 237.76234375 501.00765625 236.8671875 501.9453125 C231.1090818 507.85153668 224.98541438 513.09867553 218.5 518.1875 C216.98599609 519.39212891 216.98599609 519.39212891 215.44140625 520.62109375 C149.10695355 572.95422776 62.95362831 591.95117057 -20.04150391 582.796875 C-54.0610667 578.63298461 -87.73599397 569.44471307 -118.5 554.1875 C-119.27279297 553.81189941 -120.04558594 553.43629883 -120.84179688 553.04931641 C-142.00725904 542.69854759 -161.89700678 529.23668811 -179.234375 513.26953125 C-181.30892036 511.3630956 -183.42265931 509.5198439 -185.5625 507.6875 C-192.8170462 501.33613023 -199.25597035 494.50381426 -205.26953125 486.96875 C-206.67531257 485.21583178 -208.1071276 483.48318625 -209.57421875 481.78125 C-221.86804639 467.4195142 -231.8523963 450.95452117 -240.5 434.1875 C-240.84724121 433.51895996 -241.19448242 432.85041992 -241.55224609 432.16162109 C-255.4504099 405.04924516 -263.6010121 375.13022112 -268.5 345.1875 C-268.66661133 344.19766113 -268.83322266 343.20782227 -269.00488281 342.18798828 C-274.18258362 309.98011647 -273.89623147 274.33851035 -268.5 242.1875 C-268.32839355 241.12740723 -268.15678711 240.06731445 -267.97998047 238.97509766 C-257.58131499 176.18351354 -229.92144206 121.40812308 -186.5 75.1875 C-185.88640625 74.53136719 -185.2728125 73.87523437 -184.640625 73.19921875 C-180.51538807 68.92665192 -175.99225039 65.21054395 -171.36328125 61.49609375 C-169.5491531 60.03340652 -167.75231811 58.5487826 -165.98046875 57.03515625 C-152.45615156 45.54675777 -137.2156991 36.34567204 -121.5 28.1875 C-120.82710937 27.8373584 -120.15421875 27.4872168 -119.4609375 27.12646484 C-82.66588923 8.26900261 -41.15026864 -0.06634168 0 0 Z M-88.0625 160.375 C-103.96516571 176.68484634 -115.26857412 197.56751886 -118.5 220.1875 C-42.6 220.1875 33.3 220.1875 111.5 220.1875 C108.95850725 192.23107975 94.71403076 166.75267705 73.40625 148.46484375 C23.92229245 107.9260928 -43.59034649 117.8337103 -88.0625 160.375 Z " fill="#000000" transform="translate(3774.5,495.8125)"/>
<path d="M0 0 C1.43905509 1.35251398 2.87673211 2.70649699 4.3125 4.0625 C5.57911866 5.15075807 6.84990846 6.23418185 8.125 7.3125 C17.75695369 15.73558501 26.46864208 24.95898765 34.3125 35.0625 C35.3068216 36.3050638 36.30164738 37.54722425 37.296875 38.7890625 C56.51940023 63.04314347 70.57612508 90.12611849 81.3125 119.0625 C81.61526855 119.8781543 81.91803711 120.69380859 82.22998047 121.53417969 C89.71668081 142.0487092 94.34071255 163.46131996 97.3125 185.0625 C97.43109375 185.90796387 97.5496875 186.75342773 97.671875 187.62451172 C99.27541742 199.6725559 99.52675734 211.76620797 99.60803223 223.90426636 C99.61905705 225.55023636 99.63420518 227.19618575 99.6541748 228.84207153 C99.80055321 242.92917248 98.08413144 255.88944844 96.3125 270.0625 C-31.7275 270.3925 -159.7675 270.7225 -291.6875 271.0625 C-289.52663751 284.14617237 -289.52663751 284.14617237 -286.5 297 C-286.2927832 297.73323486 -286.08556641 298.46646973 -285.87207031 299.22192383 C-280.45646581 317.47142323 -271.17032699 334.69638383 -258.6875 349.0625 C-257.64142578 350.29033203 -257.64142578 350.29033203 -256.57421875 351.54296875 C-247.4765865 361.96565579 -237.39005919 370.67754706 -225.6875 378.0625 C-225.09372559 378.43761719 -224.49995117 378.81273437 -223.88818359 379.19921875 C-188.91847198 400.88987872 -144.47729396 406.73323502 -104.52001953 397.74267578 C-74.93261125 390.63782149 -47.1168844 377.63641608 -23.6875 358.0625 C-23.10242676 357.57749023 -22.51735352 357.09248047 -21.91455078 356.59277344 C-15.3625765 351.14000752 -8.98925113 345.70091021 -3.3359375 339.29296875 C-1.6875 338.0625 -1.6875 338.0625 0.18810558 338.28282452 C2.73938358 339.21917084 4.02563431 340.39300186 5.95124817 342.30683899 C6.65656677 343.0008078 7.36188538 343.69477661 8.08857727 344.40977478 C8.85187851 345.17600662 9.61517975 345.94223846 10.40161133 346.73168945 C11.21334808 347.53495667 12.02508484 348.33822388 12.86141968 349.16583252 C15.54701989 351.82799876 18.22123823 354.50126033 20.89453125 357.17578125 C22.75179401 359.02594765 24.60935715 360.87581257 26.46720886 362.72538757 C30.36079971 366.60437302 34.24733865 370.49033013 38.13061523 374.37963867 C42.62312565 378.87879836 47.13021056 383.36297422 51.64453107 387.84024078 C55.98473562 392.14610509 60.3110222 396.46569321 64.63202477 400.79082298 C66.47375794 402.63085729 68.3195019 404.46688586 70.16922951 406.29888344 C72.74830101 408.85593912 75.31114297 411.42822295 77.87036133 414.00512695 C78.64378372 414.7652861 79.41720612 415.52544525 80.21406555 416.30863953 C80.90528503 417.01106781 81.59650452 417.71349609 82.30867004 418.43721008 C82.9164671 419.04429463 83.52426416 419.65137918 84.15047932 420.27686024 C85.3125 422.0625 85.3125 422.0625 85.13036633 424.12697124 C83.84846196 427.1606733 81.74600412 429.17190334 79.5 431.5625 C79.01080078 432.08368408 78.52160156 432.60486816 78.01757812 433.1418457 C76.45926499 434.79198447 74.8879642 436.42873925 73.3125 438.0625 C72.81186035 438.58505371 72.3112207 439.10760742 71.79541016 439.64599609 C65.03871243 446.6675758 58.02964353 453.08923046 50.3125 459.0625 C49.75143555 459.50529297 49.19037109 459.94808594 48.61230469 460.40429688 C-16.97801283 512.06863126 -103.43957695 532.2688191 -185.67938232 522.83398438 C-259.41124394 513.85023688 -331.10597039 480.27866242 -377.56787109 420.93408203 C-412.21483905 375.94833814 -431.18014205 324.30655719 -437.6875 268.0625 C-437.7920752 267.16756836 -437.89665039 266.27263672 -438.00439453 265.35058594 C-439.04215695 254.95811005 -438.93131134 244.49595266 -438.9375 234.0625 C-438.93817474 233.03983032 -438.93884949 232.01716064 -438.93954468 230.96350098 C-438.9223089 214.48094566 -438.284462 198.37019445 -435.6875 182.0625 C-435.52121094 180.99837891 -435.35492187 179.93425781 -435.18359375 178.83789062 C-422.98161052 103.41155724 -383.92625393 33.21950042 -321.6875 -11.9375 C-244.05467993 -67.62464655 -134.7474824 -76.38636102 0 0 Z M-259.6875 105.125 C-273.92327671 121.17097751 -280.79007469 139.24844241 -285.6875 160.0625 C-209.7875 160.0625 -133.8875 160.0625 -55.6875 160.0625 C-58.30834284 131.23322872 -73.1391377 105.90272866 -95.125 87.25 C-147.36759268 46.42614544 -215.67177987 59.18057852 -259.6875 105.125 Z " fill="#000000" transform="translate(2051.6875,555.9375)"/>
<path d="M0 0 C0.73444336 -0.00067474 1.46888672 -0.00134949 2.22558594 -0.00204468 C71.97513211 0.09844005 144.13886 23.98798065 195.23046875 72.6328125 C197.39507332 74.67834855 199.5750173 76.61309623 201.875 78.5 C204.95895108 81.10019405 207.5373591 84.0103977 210.140625 87.0859375 C211.38795401 88.53766076 212.6703413 89.95992838 213.984375 91.3515625 C242.14357349 121.25786455 260.6970776 161.70913192 267.3125 202 C267.55178223 203.45249146 267.55178223 203.45249146 267.79589844 204.93432617 C270.65865836 223.86298328 270.14105832 243.04967012 270.11606562 262.13681805 C270.11170505 266.32128904 270.11321148 270.5057587 270.1139679 274.69023132 C270.11448961 281.9216302 270.11137984 289.15301999 270.10573006 296.38441658 C270.097567 306.83951386 270.09499493 317.29460679 270.09374207 327.74970692 C270.09155906 344.71668535 270.08491944 361.68365895 270.07543945 378.65063477 C270.06624584 395.12231421 270.05918604 411.59399233 270.05493164 428.06567383 C270.05466364 429.09310391 270.05439565 430.12053398 270.05411953 431.17909831 C270.05203983 439.21551686 270.050083 447.25193545 270.04816496 455.28835404 C270.038749 494.60890713 270.0186265 533.92944811 270 573.25 C219.84 573.25 169.68 573.25 118 573.25 C117.96261719 550.48902344 117.92523437 527.72804688 117.88671875 504.27734375 C117.85643733 489.84439531 117.82542727 475.41145394 117.79101562 460.97851562 C117.77296814 453.39298554 117.75510457 445.80745506 117.73754883 438.22192383 C117.7342373 436.79603277 117.7342373 436.79603277 117.73085886 435.34133583 C117.69558347 420.03709541 117.67067185 404.73285504 117.64965298 389.42858916 C117.62781485 373.69754318 117.59468917 357.9665495 117.55129844 342.23554808 C117.52491904 332.54523277 117.50712301 322.8549825 117.50065396 313.1646331 C117.49535777 306.50050304 117.47900105 299.8364545 117.45433434 293.17236828 C117.44046252 289.33970003 117.43109381 285.5071772 117.43499184 281.67448235 C117.46515335 244.30240732 114.42012733 202.40999239 88 173.25 C87.26265625 172.41984375 86.5253125 171.5896875 85.765625 170.734375 C67.56018934 151.33904158 40.13234395 142.12795781 13.99414062 141.04321289 C9.76666773 140.92344822 5.54132934 140.91594663 1.3125 140.9375 C0.56776428 140.93932281 -0.17697144 140.94114563 -0.9442749 140.94302368 C-12.49700796 140.99053968 -23.74290357 141.46383435 -35 144.25 C-36.0211792 144.49943359 -36.0211792 144.49943359 -37.06298828 144.75390625 C-51.56011472 148.45442541 -65.19606495 155.03985329 -77 164.25 C-77.62003906 164.71792969 -78.24007812 165.18585938 -78.87890625 165.66796875 C-102.53025889 184.55730408 -110.93137151 217.88111067 -114.36515236 246.45213509 C-115.63231645 258.58055703 -115.44508806 270.79270579 -115.43273985 282.97326601 C-115.43210598 286.88363267 -115.448828 290.79393458 -115.46325684 294.70426941 C-115.48586282 301.45101365 -115.49789645 308.1977069 -115.50238609 314.94448662 C-115.5088929 324.69873034 -115.53190874 334.45288257 -115.55872939 344.20708907 C-115.60182426 360.03933223 -115.63188928 375.8715715 -115.65356445 391.70385742 C-115.67462635 407.06748365 -115.70198015 422.43107796 -115.73754883 437.79467773 C-115.73976234 438.75411476 -115.74197585 439.71355179 -115.74425644 440.70206267 C-115.76162058 448.2074396 -115.77934524 455.71281568 -115.79718363 463.2181915 C-115.88426428 499.89544111 -115.93995131 536.57267692 -116 573.25 C-166.16 573.25 -216.32 573.25 -268 573.25 C-268.0806627 487.3083764 -268.0806627 487.3083764 -268.09765625 451.33203125 C-268.10157152 443.09846997 -268.10561235 434.86490877 -268.10986328 426.63134766 C-268.11039078 425.59951862 -268.11091828 424.56768959 -268.11146176 423.50459301 C-268.12014143 406.88395139 -268.13589856 390.26332372 -268.15430559 373.64269035 C-268.17306151 356.56357756 -268.18412872 339.48447204 -268.18817699 322.40534937 C-268.19091028 311.8812623 -268.19951794 301.35721466 -268.21583293 290.83313973 C-268.22647021 283.59951637 -268.2295855 276.36591315 -268.22700275 269.13228254 C-268.22573187 264.96963238 -268.22756849 260.80705072 -268.23841095 256.64441299 C-268.37991394 199.35571673 -256.89975401 148.14635801 -221 102.25 C-220.31550781 101.37085938 -219.63101563 100.49171875 -218.92578125 99.5859375 C-210.23559427 88.69509318 -200.7731614 78.11604808 -190 69.25 C-189.11957031 68.47011719 -188.23914062 67.69023438 -187.33203125 66.88671875 C-136.35356944 21.919436 -67.31450225 0.0564398 0 0 Z " fill="#000000" transform="translate(2527,495.75)"/>
<path d="M0 0 C-0.57226099 7.71701595 -1.62729871 15.241789 -3.02539062 22.84960938 C-3.22875534 23.97781097 -3.43212006 25.10601257 -3.64164734 26.2684021 C-4.3085175 29.96104658 -4.98223566 33.65240344 -5.65625 37.34375 C-6.12360635 39.92152565 -6.59060111 42.49936687 -7.05725098 45.07727051 C-8.03246504 50.46063866 -9.01134621 55.84332939 -9.99267578 61.22558594 C-11.12671943 67.44557115 -12.25583614 73.66643461 -13.38215685 79.88782263 C-14.46867013 85.88913844 -15.55777223 91.88998055 -16.64823914 97.89057922 C-17.11125274 100.43905867 -17.57374814 102.98763232 -18.03572083 105.53630066 C-18.67977367 109.08646228 -19.32674761 112.63607864 -19.97460938 116.18554688 C-20.16580856 117.24216522 -20.35700775 118.29878357 -20.55400085 119.38742065 C-20.81894096 120.83382431 -20.81894096 120.83382431 -21.0892334 122.30944824 C-21.24187401 123.14781975 -21.39451462 123.98619125 -21.5517807 124.84996796 C-22 127 -22 127 -23 130 C-23.6798999 129.88406494 -24.3597998 129.76812988 -25.06030273 129.64868164 C-28.18559219 129.11731073 -31.31153491 128.58988115 -34.4375 128.0625 C-35.50677734 127.88009766 -36.57605469 127.69769531 -37.67773438 127.50976562 C-72.25345122 121.69427808 -109.77325245 123.52206422 -139.265625 144.30078125 C-159.06614111 159.96266489 -167.23592656 181.65162217 -170.58984375 206.1640625 C-172.56947611 223.12821135 -172.50889901 239.81146534 -173 257 C-120.86 257 -68.72 257 -15 257 C-15 299.24 -15 341.48 -15 385 C-67.14 385 -119.28 385 -173 385 C-173 529.54 -173 674.08 -173 823 C-222.83 823 -272.66 823 -324 823 C-324 678.46 -324 533.92 -324 385 C-375.15 385 -426.3 385 -479 385 C-479 342.76 -479 300.52 -479 257 C-427.85 257 -376.7 257 -324 257 C-324 241.16 -324 225.32 -324 209 C-319.83945993 150.31448747 -305.15912924 91.84568414 -260 51 C-256.40298106 47.90872306 -252.71709696 44.94516016 -249 42 C-248.04609375 41.21753906 -247.0921875 40.43507813 -246.109375 39.62890625 C-224.67073928 22.45051224 -199.1916803 10.02713409 -173 2 C-172.13052734 1.73348633 -171.26105469 1.46697266 -170.36523438 1.19238281 C-156.43483039 -2.99481984 -142.40137475 -5.97484623 -128 -8 C-127.16194824 -8.11859375 -126.32389648 -8.2371875 -125.46044922 -8.359375 C-84.37618699 -13.82967899 -39.9633392 -10.4639384 0 0 Z " fill="#000000" transform="translate(1555,246)"/>
<path d="M0 0 C1.39563334 1.20856432 2.7914421 2.41692613 4.1875 3.625 C5.45914063 4.74908739 6.72992859 5.87413989 8 7 C8.81210938 7.70769531 9.62421875 8.41539062 10.4609375 9.14453125 C15.02768282 13.16957555 19.28429267 17.23820221 23.2109375 21.890625 C26.02029758 25.20297095 28.96460085 28.39269614 31.88671875 31.60546875 C32.93279297 32.79076172 32.93279297 32.79076172 34 34 C34.76957031 34.84175781 35.53914063 35.68351563 36.33203125 36.55078125 C38 39 38 39 37.77539062 40.98876953 C36.46090216 44.39832745 33.45620145 46.32096222 30.6875 48.5625 C29.40209967 49.63095513 28.11827257 50.70130544 26.8359375 51.7734375 C26.18979492 52.31194336 25.54365234 52.85044922 24.87792969 53.40527344 C22.11370217 55.75263877 19.46180939 58.21214626 16.8125 60.6875 C13.18823564 64.05692862 9.48759213 67.27928747 5.625 70.375 C0.58583594 74.42666217 -4.10465771 78.77354616 -8.80810547 83.20263672 C-13.101263 87.22343643 -17.56246351 90.94997081 -22.15625 94.625 C-25.55635072 97.46464456 -28.77586445 100.46388099 -32 103.5 C-36.88301041 108.09825603 -41.88806524 112.41510252 -47.1328125 116.6015625 C-51.29768248 120.08552731 -55.22668204 123.81214 -59.14257812 127.57226562 C-62.24732687 130.51944927 -65.19278231 132.96092835 -69 135 C-77.53013203 125.56076093 -77.53013203 125.56076093 -81.5625 120.875 C-82.70369888 119.57923694 -83.84944526 118.28746285 -85 117 C-85.53238281 116.40058594 -86.06476562 115.80117188 -86.61328125 115.18359375 C-106.78187542 93.7628474 -135.60366091 78.76296484 -164 72 C-164.73798828 71.82355957 -165.47597656 71.64711914 -166.23632812 71.46533203 C-204.42872327 62.85583098 -246.45702264 70.83055852 -279.40625 91.62109375 C-285.21324026 95.40344251 -290.67958877 99.56381672 -296 104 C-296.51159668 104.42506836 -297.02319336 104.85013672 -297.55029297 105.28808594 C-327.30980108 130.37554948 -344.30951757 169.17393224 -347.82128906 207.4440918 C-350.73686138 249.14235215 -339.15741931 290.68098641 -311.85546875 322.73828125 C-285.28619967 352.95204176 -246.69064226 369.05913958 -207 372 C-165.51389928 373.92041159 -124.38697388 361.98296395 -93 334 C-91.71029297 332.87271484 -91.71029297 332.87271484 -90.39453125 331.72265625 C-87.89842217 329.51354307 -85.44370872 327.26680725 -83 325 C-82.35804688 324.42378906 -81.71609375 323.84757812 -81.0546875 323.25390625 C-75.45030492 317.98953851 -71.01690614 311.88241929 -66.56713867 305.63867188 C-66.03451416 304.91228516 -65.50188965 304.18589844 -64.953125 303.4375 C-64.48036133 302.77621094 -64.00759766 302.11492187 -63.52050781 301.43359375 C-62 300 -62 300 -58 300 C-55.91967773 301.24658203 -55.91967773 301.24658203 -53.68359375 303.0078125 C-52.84699219 303.6575 -52.01039063 304.3071875 -51.1484375 304.9765625 C-50.25382812 305.68554688 -49.35921875 306.39453125 -48.4375 307.125 C-46.53100062 308.60812503 -44.62342739 310.08987059 -42.71484375 311.5703125 C-41.75433105 312.31829102 -40.79381836 313.06626953 -39.80419922 313.83691406 C-35.75351028 316.96150957 -31.63255952 319.98502336 -27.5 323 C-19.87146975 328.5850456 -12.34351735 334.29279171 -4.8359375 340.0390625 C0.89902853 344.42064421 6.67763175 348.73537864 12.5 353 C20.27456904 358.69535237 27.9625298 364.49731093 35.61010742 370.36206055 C39.37692207 373.24951304 43.14473903 376.12676953 46.9921875 378.90625 C47.85082397 379.53019653 47.85082397 379.53019653 48.72680664 380.16674805 C50.18337764 381.21920189 51.64795934 382.26054575 53.11328125 383.30078125 C53.73589844 383.86152344 54.35851563 384.42226563 55 385 C55 388.76300724 54.05739099 389.51593311 51.6875 392.375 C50.9553125 393.261875 50.223125 394.14875 49.46875 395.0625 C48.6540625 396.031875 47.839375 397.00125 47 398 C46.13518251 399.04147228 45.27060484 400.08314372 44.40625 401.125 C30.61781389 417.6621031 15.99292254 433.70827566 -1 447 C-2.14033382 447.93860318 -3.27821124 448.88019595 -4.4140625 449.82421875 C-56.53728492 492.88071631 -122.508423 510.56002991 -189 513 C-190.36439209 513.05196533 -190.36439209 513.05196533 -191.75634766 513.10498047 C-197.18277312 513.28129823 -202.57565558 513.21584935 -208 513 C-209.0626709 512.95891113 -210.1253418 512.91782227 -211.22021484 512.87548828 C-272.38586137 510.23591192 -332.2951739 492.34214197 -382 456 C-382.56090332 455.59072266 -383.12180664 455.18144531 -383.69970703 454.75976562 C-402.99968006 440.55498548 -421.42739406 424.07221759 -436 405 C-437.01203228 403.71536643 -438.02513823 402.4315783 -439.0390625 401.1484375 C-472.67986495 358.26625888 -493.11176787 307.19874586 -499 253 C-499.0942627 252.14462646 -499.18852539 251.28925293 -499.28564453 250.40795898 C-506.75545364 173.39142084 -483.9395178 95.92242529 -435 36 C-431.7928583 32.21309809 -428.41479919 28.59955512 -425 25 C-423.80559729 23.63099181 -422.61765082 22.25631289 -421.4375 20.875 C-415.17072546 13.68144894 -408.30122905 7.12928218 -401 1 C-400.49742676 0.56768066 -399.99485352 0.13536133 -399.47705078 -0.31005859 C-382.27839283 -15.06665602 -363.18349008 -27.70194642 -343 -38 C-342.20094238 -38.40911621 -341.40188477 -38.81823242 -340.57861328 -39.23974609 C-252.4626878 -83.85432061 -146.16316688 -82.73294829 0 0 Z " fill="#000000" transform="translate(3398,568)"/>
<path d="M0 0 C203.94 0 407.88 0 618 0 C618 68.31 618 136.62 618 207 C414.06 207 210.12 207 0 207 C0 138.69 0 70.38 0 0 Z " fill="#00A2FF" transform="translate(204,554)"/>
<path d="M0 0 C3.90963445 0.00878775 7.8192641 0.00570373 11.72890568 0.00419545 C18.47291517 0.0031561 25.21688542 0.00933203 31.96088505 0.02067113 C41.71109199 0.03705391 51.4612803 0.04214707 61.21149951 0.04464711 C77.03766546 0.04900439 92.86381058 0.06225955 108.68996525 0.08125234 C124.04673505 0.09966245 139.40349913 0.11377073 154.76027775 0.12226796 C155.71944678 0.12280396 156.67861581 0.12333995 157.66685057 0.12389219 C165.17024189 0.128052 172.67363334 0.13196551 180.17702484 0.13580132 C216.83825848 0.1546057 253.49943986 0.19485706 290.16066837 0.23213124 C290.16066837 68.54213124 290.16066837 136.85213124 290.16066837 207.23213124 C120.21066837 207.23213124 -49.73933163 207.23213124 -224.83933163 207.23213124 C-224.83933163 181.59962313 -224.83933163 181.59962313 -223.65183163 173.60713124 C-223.51873592 172.66313466 -223.38564022 171.71913808 -223.24851131 170.74653554 C-219.86171706 148.11676431 -212.78081604 126.32245744 -201.83933163 106.23213124 C-201.5185162 105.63207265 -201.19770077 105.03201406 -200.86716366 104.41377187 C-174.82656496 55.90340314 -130.24337614 22.96752976 -78.10446835 7.16718984 C-52.73239411 -0.09877729 -26.17971179 -0.07411228 0 0 Z " fill="#00A2FF" transform="translate(634.8393316268921,244.76786875724792)"/>
<path d="M0 0 C25.22482935 20.39431994 40.66998253 48.1668377 44.49121094 80.53125 C47.32031282 110.70833672 38.89610638 141.93071093 19.47265625 165.4375 C-0.59552705 188.77158193 -26.48651355 204.64862088 -57.46875 208.34375 C-90.58667644 210.76701291 -121.32790834 203.19067596 -146.96484375 181.3671875 C-149.45370672 179.15902336 -151.88777708 176.90315072 -154.3125 174.625 C-154.90417969 174.109375 -155.49585937 173.59375 -156.10546875 173.0625 C-176.70165978 154.27642552 -186.82117168 124.23007444 -188.18701172 97.15698242 C-189.2991408 64.97749601 -177.92100068 35.67300923 -156.5 11.875 C-142.53648041 -3.05730728 -124.74869042 -13.30791481 -105.3125 -19.375 C-104.66748535 -19.58527832 -104.0224707 -19.79555664 -103.35791016 -20.01220703 C-68.93430032 -30.82469627 -28.13639416 -22.00193899 0 0 Z " fill="#000000" transform="translate(4325.3125,873.375)"/>
<path d="M0 0 C0.66950684 0.20898926 1.33901367 0.41797852 2.02880859 0.63330078 C16.81190608 5.3445529 30.33457051 12.75037477 42 23 C42.80566406 23.66257812 43.61132812 24.32515625 44.44140625 25.0078125 C60.75477716 38.84481881 71.67605555 57.74094897 78 78 C78.21027832 78.64501465 78.42055664 79.2900293 78.63720703 79.95458984 C81.91524325 90.39083976 82.38834646 100.81366215 82.4375 111.6875 C82.44765137 112.96955322 82.45780273 114.25160645 82.46826172 115.57250977 C82.17450624 147.89181831 67.81840685 174.8339018 45.55078125 197.4921875 C30.15452099 212.26707403 10.71674976 221.4746068 -10 226 C-11.01964844 226.22558594 -12.03929687 226.45117188 -13.08984375 226.68359375 C-42.59391544 232.18950159 -73.79745387 225.22787869 -98.75878906 208.84570312 C-102.31001147 206.39441686 -105.67328107 203.74515918 -109 201 C-110.19689453 200.03126953 -110.19689453 200.03126953 -111.41796875 199.04296875 C-132.59038347 181.15027404 -146.46215491 153.1413616 -149.71875 125.7734375 C-152.19185738 92.5925802 -144.35207121 62.27961334 -122.8828125 36.453125 C-93.08125784 2.3033008 -44.06903961 -14.36674911 0 0 Z " fill="#00A1FF" transform="translate(547,854)"/>
</svg>